{
  "accessors": [
    {
      "bufferView": 1,
      "componentType": 5126,
      "count": 2160,
      "max": [
        440.5955810546875,
        440.5782775878906,
        160.2998809814453
      ],
      "min": [
        -440.6467590332031,
        -440.6640625,
        -160.9375
      ],
      "type": "VEC3"
    },
    {
      "bufferView": 1,
      "byteOffset": 25920,
      "componentType": 5126,
      "count": 2160,
      "max": [
        0.9989155530929565,
        0.9989155530929565,
        0.6883546113967896
      ],
      "min": [
        -0.9989155530929565,
        -0.9989155530929565,
        -0.6883546113967896
      ],
      "type": "VEC3"
    },
    {
      "bufferView": 0,
      "componentType": 5125,
      "count": 4752,
      "type": "SCALAR"
    }
  ],
  "asset": {
    "extras": {
      "author": "tahsinpulok (https://sketchfab.com/tahsinpulok)",
      "license": "CC-BY-NC-ND-4.0 (http://creativecommons.org/licenses/by-nc-nd/4.0/)",
      "source": "https://sketchfab.com/3d-models/abstract-7-3dd267c877234813a400075faa223abf",
      "title": "Abstract 7"
    },
    "generator": "Sketchfab-13.28.0",
    "version": "2.0"
  },
  "bufferViews": [
    {
      "buffer": 0,
      "byteLength": 19008,
      "name": "floatBufferViews",
      "target": 34963
    },
    {
      "buffer": 0,
      "byteLength": 51840,
      "byteOffset": 19008,
      "byteStride": 12,
      "name": "floatBufferViews",
      "target": 34962
    }
  ],
  "buffers": [
    {
      "byteLength": 70848,
      "uri": "scene.bin"
    }
  ],
  "materials": [
    {
      "name": "material",
      "pbrMetallicRoughness": {
        "metallicFactor": 0.0,
        "roughnessFactor": 0.6
      }
    }
  ],
  "meshes": [
    {
      "name": "Material2",
      "primitives": [
        {
          "attributes": {
            "NORMAL": 1,
            "POSITION": 0
          },
          "indices": 2,
          "material": 0,
          "mode": 4
        }
      ]
    }
  ],
  "nodes": [
    {
      "children": [
        1
      ],
      "matrix": [
        1.0,
        0.0,
        0.0,
        0.0,
        0.0,
        2.220446049250313e-16,
        -1.0,
        0.0,
        0.0,
        1.0,
        2.220446049250313e-16,
        0.0,
        0.0,
        0.0,
        0.0,
        1.0
      ],
      "name": "Sketchfab_model"
    },
    {
      "children": [
        2,
        3
      ],
      "name": "Collada visual scene group"
    },
    {
      "mesh": 0,
      "name": "Material2"
    },
    {
      "children": [
        4
      ],
      "name": "SketchUp"
    },
    {
      "children": [
        5
      ],
      "matrix": [
        0.05840107,
        0.9982932,
        -1.387779e-17,
        0.0,
        -0.660736,
        0.03865366,
        0.7496225,
        0.0,
        0.748343,
        -0.04377875,
        0.6618657,
        0.0,
        1162.612,
        -73.44984,
        924.4912,
        1.0
      ],
      "name": "skp_camera_Last_Saved_SketchUp_View"
    },
    {
      "name": "ID1"
    }
  ],
  "scene": 0,
  "scenes": [
    {
      "name": "Sketchfab_Scene",
      "nodes": [
        0
      ]
    }
  ]
}
